# xmcd
#
# Track frame offsets: 
#        150
#        15057
#        34392
#        52985
#
# Disc length: 942 seconds
#
# Revision: 0
# Processed by: cddbd v1.5.2PL0 Copyright (c) Steve Scherf et al.
# Submitted via: ExactAudioCopy v1.0b3
#
DISCID=2203ac04
DTITLE=Think Twice - OK Corral
DYEAR=1900
DGENRE=
TTITLE0=OK Corral (Radio Edit)
TTITLE1=OK Corral (Club Mix)
TTITLE2=OK Corral (Instrumental)
TTITLE3=I'm Ready
EXTD=
EXTT0=
EXTT1=
EXTT2=
EXTT3=
PLAYORDER=
